<?xml version="1.0" encoding="iso-8859-1"?>
<!-- Uploaded to: SVG Repo, www.svgrepo.com, Generator: SVG Repo Mixer Tools -->
<!DOCTYPE svg PUBLIC "-//W3C//DTD SVG 1.1//EN" "http://www.w3.org/Graphics/SVG/1.1/DTD/svg11.dtd">
<svg fill="#000000" height="800px" width="800px" version="1.1" id="Capa_1" xmlns="http://www.w3.org/2000/svg" xmlns:xlink="http://www.w3.org/1999/xlink" 
	 viewBox="0 0 495.57 495.57" xml:space="preserve">
<g>
	<path d="M462.053,211.33h4.554c15.699,0,28.473-12.776,28.473-28.473v-12.946c0-15.697-12.774-28.473-28.473-28.473h-39.861
		c-16.3-58.209-68.742-98.397-129.721-98.397h-98.478c-60.979,0-113.422,40.197-129.722,98.397h-39.86
		c-15.698,0-28.474,12.776-28.474,28.473v12.946c0,15.697,12.775,28.473,28.474,28.473h4.553C13.306,225.421,0,248.765,0,275.216
		v43.046c0,39.001,28.892,71.114,66.343,76.766v23.688c0,18.645,15.169,33.814,33.813,33.814h33.541
		c18.645,0,33.814-15.169,33.814-33.814v-22.515h160.557v22.515c0,18.645,15.167,33.814,33.813,33.814h33.533
		c18.646,0,33.813-15.169,33.813-33.814v-23.688c37.452-5.652,66.343-37.765,66.343-76.766v-43.046
		C495.57,248.765,482.265,225.421,462.053,211.33z M478.635,169.911v12.946c0,6.632-5.395,12.028-12.028,12.028h-27.118
		l-8.638-37.001h35.756C473.239,157.883,478.635,163.278,478.635,169.911z M99.217,154.744c10.833-46.405,51.68-78.813,99.33-78.813
		h41.016v20.259h-23.76c-9.081,0-16.445,7.364-16.445,16.445c0,9.082,7.364,16.445,16.445,16.445h63.973
		c9.083,0,16.445-7.362,16.445-16.445c0-9.081-7.362-16.445-16.445-16.445h-23.768V75.93h41.017
		c47.648,0,88.488,32.409,99.32,78.813l8.824,37.795H90.4L99.217,154.744z M16.935,182.856v-12.946
		c0-6.632,5.396-12.028,12.029-12.028h35.757l-8.64,37.001H28.964C22.331,194.884,16.935,189.489,16.935,182.856z M142.843,418.716
		c0,5.043-4.104,9.146-9.146,9.146h-33.541c-5.043,0-9.146-4.103-9.146-9.146v-22.515h51.833V418.716z M395.415,427.862h-33.533
		c-5.043,0-9.146-4.103-9.146-9.146v-22.515h51.824v22.515C404.56,423.759,400.457,427.862,395.415,427.862z M462.68,318.262
		c0,24.837-20.211,45.048-45.048,45.048H77.938c-24.836,0-45.047-20.211-45.047-45.048v-43.046
		c0-24.837,20.211-45.048,45.047-45.048h339.694c24.837,0,45.048,20.211,45.048,45.048V318.262z"/>
	<path d="M349.266,253.623H154.431c-4.545,0-8.223,3.677-8.223,8.223c0,4.544,3.678,8.223,8.223,8.223h194.836
		c4.545,0,8.223-3.679,8.223-8.223C357.489,257.3,353.812,253.623,349.266,253.623z"/>
	<path d="M349.266,288.513H154.431c-4.545,0-8.223,3.677-8.223,8.223c0,4.543,3.678,8.222,8.223,8.222h194.836
		c4.545,0,8.223-3.679,8.223-8.222C357.489,292.19,353.812,288.513,349.266,288.513z"/>
	<path d="M349.266,323.418H154.431c-4.545,0-8.223,3.679-8.223,8.223c0,4.545,3.678,8.223,8.223,8.223h194.836
		c4.545,0,8.223-3.677,8.223-8.223C357.489,327.097,353.812,323.418,349.266,323.418z"/>
	<path d="M87.839,256.537c-22.17,0-40.206,18.036-40.206,40.199c0,22.178,18.035,40.221,40.206,40.221s40.213-18.043,40.213-40.221
		C128.052,274.573,110.009,256.537,87.839,256.537z M87.839,320.512c-13.105,0-23.761-10.665-23.761-23.776
		c0-13.097,10.656-23.753,23.761-23.753c13.104,0,23.768,10.656,23.768,23.753C111.607,309.847,100.943,320.512,87.839,320.512z"/>
	<path d="M407.724,256.537c-22.17,0-40.205,18.036-40.205,40.199c0,22.178,18.035,40.221,40.205,40.221
		c22.171,0,40.213-18.043,40.213-40.221C447.937,274.573,429.895,256.537,407.724,256.537z M407.724,320.512
		c-13.105,0-23.76-10.665-23.76-23.776c0-13.097,10.655-23.753,23.76-23.753c13.105,0,23.768,10.656,23.768,23.753
		C431.492,309.847,420.829,320.512,407.724,320.512z"/>
</g>
</svg>